<mxfile host="app.diagrams.net" modified="2023-07-27T02:32:17.738Z" agent="Mozilla/5.0 (Windows NT 10.0; Win64; x64) AppleWebKit/537.36 (KHTML, like Gecko) Chrome/115.0.0.0 Safari/537.36 Edg/115.0.1901.183" etag="dZlaYGCzSugng3VM-259" version="21.6.5" type="device">
  <diagram id="R2lEEEUBdFMjLlhIrx00" name="Page-1">
    <mxGraphModel dx="1112" dy="1723" grid="1" gridSize="10" guides="1" tooltips="1" connect="1" arrows="1" fold="1" page="1" pageScale="1" pageWidth="850" pageHeight="1100" background="#ffffff" math="0" shadow="1" extFonts="Permanent Marker^https://fonts.googleapis.com/css?family=Permanent+Marker">
      <root>
        <mxCell id="0" />
        <mxCell id="1" parent="0" />
        <mxCell id="xGMi2MPVF7aktjJ1Y1x7-1" value="Department" style="rounded=0;whiteSpace=wrap;html=1;fontSize=16;" vertex="1" parent="1">
          <mxGeometry x="750" y="-50" width="90" height="40" as="geometry" />
        </mxCell>
        <mxCell id="xGMi2MPVF7aktjJ1Y1x7-2" value="Employee" style="rounded=0;whiteSpace=wrap;html=1;fontSize=16;" vertex="1" parent="1">
          <mxGeometry x="335" y="-30" width="90" height="40" as="geometry" />
        </mxCell>
        <mxCell id="xGMi2MPVF7aktjJ1Y1x7-4" value="Project" style="rounded=0;whiteSpace=wrap;html=1;fontSize=16;" vertex="1" parent="1">
          <mxGeometry x="750" y="250" width="70" height="40" as="geometry" />
        </mxCell>
        <mxCell id="xGMi2MPVF7aktjJ1Y1x7-6" value="Dependent" style="shape=ext;double=1;rounded=0;whiteSpace=wrap;html=1;fontSize=16;" vertex="1" parent="1">
          <mxGeometry x="245" y="280" width="90" height="50" as="geometry" />
        </mxCell>
        <mxCell id="xGMi2MPVF7aktjJ1Y1x7-8" value="SSD" style="ellipse;whiteSpace=wrap;html=1;fontSize=16;" vertex="1" parent="1">
          <mxGeometry x="225" y="-100" width="75" height="40" as="geometry" />
        </mxCell>
        <mxCell id="xGMi2MPVF7aktjJ1Y1x7-9" value="Address" style="ellipse;whiteSpace=wrap;html=1;fontSize=16;" vertex="1" parent="1">
          <mxGeometry x="322.5" y="-100" width="90" height="40" as="geometry" />
        </mxCell>
        <mxCell id="xGMi2MPVF7aktjJ1Y1x7-10" value="Salary" style="ellipse;whiteSpace=wrap;html=1;fontSize=16;" vertex="1" parent="1">
          <mxGeometry x="440" y="-90" width="80" height="40" as="geometry" />
        </mxCell>
        <mxCell id="xGMi2MPVF7aktjJ1Y1x7-11" value="Sex" style="ellipse;whiteSpace=wrap;html=1;fontSize=16;" vertex="1" parent="1">
          <mxGeometry x="225" y="-40" width="70" height="40" as="geometry" />
        </mxCell>
        <mxCell id="xGMi2MPVF7aktjJ1Y1x7-12" value="Birthdate" style="ellipse;whiteSpace=wrap;html=1;fontSize=16;" vertex="1" parent="1">
          <mxGeometry x="225" y="20" width="85" height="40" as="geometry" />
        </mxCell>
        <mxCell id="xGMi2MPVF7aktjJ1Y1x7-13" value="Manages" style="rhombus;whiteSpace=wrap;html=1;fontSize=16;" vertex="1" parent="1">
          <mxGeometry x="600" y="-90" width="80" height="50" as="geometry" />
        </mxCell>
        <mxCell id="xGMi2MPVF7aktjJ1Y1x7-14" value="Start Date" style="ellipse;whiteSpace=wrap;html=1;fontSize=16;" vertex="1" parent="1">
          <mxGeometry x="610" width="80" height="30" as="geometry" />
        </mxCell>
        <mxCell id="xGMi2MPVF7aktjJ1Y1x7-15" value="Works" style="rhombus;whiteSpace=wrap;html=1;fontSize=16;" vertex="1" parent="1">
          <mxGeometry x="600" y="50" width="80" height="40" as="geometry" />
        </mxCell>
        <mxCell id="xGMi2MPVF7aktjJ1Y1x7-16" value="Works" style="rhombus;whiteSpace=wrap;html=1;fontSize=16;" vertex="1" parent="1">
          <mxGeometry x="600" y="155" width="80" height="50" as="geometry" />
        </mxCell>
        <mxCell id="xGMi2MPVF7aktjJ1Y1x7-18" value="Hours" style="ellipse;whiteSpace=wrap;html=1;fontSize=16;" vertex="1" parent="1">
          <mxGeometry x="600" y="240" width="80" height="30" as="geometry" />
        </mxCell>
        <mxCell id="xGMi2MPVF7aktjJ1Y1x7-19" value="Supervises" style="rhombus;whiteSpace=wrap;html=1;fontSize=16;" vertex="1" parent="1">
          <mxGeometry x="360" y="65" width="110" height="40" as="geometry" />
        </mxCell>
        <mxCell id="xGMi2MPVF7aktjJ1Y1x7-23" value="" style="endArrow=none;html=1;rounded=0;fontSize=12;startSize=8;endSize=8;curved=1;entryX=0.5;entryY=1;entryDx=0;entryDy=0;exitX=1;exitY=0.25;exitDx=0;exitDy=0;" edge="1" parent="1" source="xGMi2MPVF7aktjJ1Y1x7-2" target="xGMi2MPVF7aktjJ1Y1x7-10">
          <mxGeometry width="50" height="50" relative="1" as="geometry">
            <mxPoint x="430" as="sourcePoint" />
            <mxPoint x="480" y="-50" as="targetPoint" />
          </mxGeometry>
        </mxCell>
        <mxCell id="xGMi2MPVF7aktjJ1Y1x7-24" value="" style="endArrow=none;html=1;rounded=0;fontSize=12;startSize=8;endSize=8;curved=1;entryX=0.5;entryY=1;entryDx=0;entryDy=0;" edge="1" parent="1" target="xGMi2MPVF7aktjJ1Y1x7-9">
          <mxGeometry width="50" height="50" relative="1" as="geometry">
            <mxPoint x="360" y="-30" as="sourcePoint" />
            <mxPoint x="380" y="-50" as="targetPoint" />
          </mxGeometry>
        </mxCell>
        <mxCell id="xGMi2MPVF7aktjJ1Y1x7-25" value="" style="endArrow=none;html=1;rounded=0;fontSize=12;startSize=8;endSize=8;curved=1;entryX=0.182;entryY=1.125;entryDx=0;entryDy=0;entryPerimeter=0;exitX=1;exitY=0.5;exitDx=0;exitDy=0;" edge="1" parent="1" source="xGMi2MPVF7aktjJ1Y1x7-12" target="xGMi2MPVF7aktjJ1Y1x7-2">
          <mxGeometry width="50" height="50" relative="1" as="geometry">
            <mxPoint x="310" y="60" as="sourcePoint" />
            <mxPoint x="360" y="10" as="targetPoint" />
          </mxGeometry>
        </mxCell>
        <mxCell id="xGMi2MPVF7aktjJ1Y1x7-26" value="" style="endArrow=none;html=1;rounded=0;fontSize=12;startSize=8;endSize=8;curved=1;entryX=0;entryY=0.75;entryDx=0;entryDy=0;exitX=1;exitY=1;exitDx=0;exitDy=0;" edge="1" parent="1" source="xGMi2MPVF7aktjJ1Y1x7-11" target="xGMi2MPVF7aktjJ1Y1x7-2">
          <mxGeometry width="50" height="50" relative="1" as="geometry">
            <mxPoint x="280" y="30" as="sourcePoint" />
            <mxPoint x="330" y="-20" as="targetPoint" />
          </mxGeometry>
        </mxCell>
        <mxCell id="xGMi2MPVF7aktjJ1Y1x7-27" value="" style="endArrow=none;html=1;rounded=0;fontSize=12;startSize=8;endSize=8;curved=1;entryX=0;entryY=0.25;entryDx=0;entryDy=0;exitX=1;exitY=1;exitDx=0;exitDy=0;" edge="1" parent="1" source="xGMi2MPVF7aktjJ1Y1x7-8" target="xGMi2MPVF7aktjJ1Y1x7-2">
          <mxGeometry width="50" height="50" relative="1" as="geometry">
            <mxPoint x="280" y="-10" as="sourcePoint" />
            <mxPoint x="330" y="-60" as="targetPoint" />
          </mxGeometry>
        </mxCell>
        <mxCell id="xGMi2MPVF7aktjJ1Y1x7-30" value="" style="endArrow=none;html=1;rounded=0;fontSize=12;startSize=8;endSize=8;curved=1;entryX=0.5;entryY=1;entryDx=0;entryDy=0;exitX=0.367;exitY=-0.033;exitDx=0;exitDy=0;exitPerimeter=0;" edge="1" parent="1" source="xGMi2MPVF7aktjJ1Y1x7-14" target="xGMi2MPVF7aktjJ1Y1x7-13">
          <mxGeometry width="50" height="50" relative="1" as="geometry">
            <mxPoint x="600" y="20" as="sourcePoint" />
            <mxPoint x="650" y="-30" as="targetPoint" />
          </mxGeometry>
        </mxCell>
        <mxCell id="xGMi2MPVF7aktjJ1Y1x7-31" value="" style="endArrow=none;html=1;rounded=0;fontSize=12;startSize=8;endSize=8;curved=1;entryX=0.5;entryY=1;entryDx=0;entryDy=0;exitX=0.5;exitY=0;exitDx=0;exitDy=0;" edge="1" parent="1" source="xGMi2MPVF7aktjJ1Y1x7-18" target="xGMi2MPVF7aktjJ1Y1x7-16">
          <mxGeometry width="50" height="50" relative="1" as="geometry">
            <mxPoint x="530" y="250" as="sourcePoint" />
            <mxPoint x="580" y="200" as="targetPoint" />
          </mxGeometry>
        </mxCell>
        <mxCell id="xGMi2MPVF7aktjJ1Y1x7-32" value="Name" style="ellipse;whiteSpace=wrap;html=1;fontSize=16;" vertex="1" parent="1">
          <mxGeometry x="240" y="370" width="80" height="40" as="geometry" />
        </mxCell>
        <mxCell id="xGMi2MPVF7aktjJ1Y1x7-33" value="Sex" style="ellipse;whiteSpace=wrap;html=1;fontSize=16;" vertex="1" parent="1">
          <mxGeometry x="352.5" y="360" width="60" height="40" as="geometry" />
        </mxCell>
        <mxCell id="xGMi2MPVF7aktjJ1Y1x7-34" value="Birthdate" style="ellipse;whiteSpace=wrap;html=1;fontSize=16;" vertex="1" parent="1">
          <mxGeometry x="400" y="280" width="70" height="50" as="geometry" />
        </mxCell>
        <mxCell id="xGMi2MPVF7aktjJ1Y1x7-35" value="Relationship" style="ellipse;whiteSpace=wrap;html=1;fontSize=16;" vertex="1" parent="1">
          <mxGeometry x="330" y="220" width="110" height="40" as="geometry" />
        </mxCell>
        <mxCell id="xGMi2MPVF7aktjJ1Y1x7-36" value="" style="shape=link;html=1;rounded=0;fontSize=12;startSize=8;endSize=8;curved=1;exitX=0.345;exitY=0.868;exitDx=0;exitDy=0;entryX=0.5;entryY=0;entryDx=0;entryDy=0;width=6;exitPerimeter=0;" edge="1" parent="1" source="xGMi2MPVF7aktjJ1Y1x7-64" target="xGMi2MPVF7aktjJ1Y1x7-6">
          <mxGeometry width="100" relative="1" as="geometry">
            <mxPoint x="295" y="200" as="sourcePoint" />
            <mxPoint x="500" y="170" as="targetPoint" />
            <Array as="points" />
          </mxGeometry>
        </mxCell>
        <mxCell id="xGMi2MPVF7aktjJ1Y1x7-38" value="" style="endArrow=none;html=1;rounded=0;fontSize=12;startSize=8;endSize=8;curved=1;entryX=0.378;entryY=1.065;entryDx=0;entryDy=0;entryPerimeter=0;exitX=0.5;exitY=0;exitDx=0;exitDy=0;" edge="1" parent="1" source="xGMi2MPVF7aktjJ1Y1x7-64" target="xGMi2MPVF7aktjJ1Y1x7-2">
          <mxGeometry width="50" height="50" relative="1" as="geometry">
            <mxPoint x="295" y="160" as="sourcePoint" />
            <mxPoint x="330" y="80" as="targetPoint" />
          </mxGeometry>
        </mxCell>
        <mxCell id="xGMi2MPVF7aktjJ1Y1x7-39" value="" style="endArrow=none;html=1;rounded=0;fontSize=12;startSize=8;endSize=8;curved=1;entryX=0.622;entryY=1.004;entryDx=0;entryDy=0;entryPerimeter=0;exitX=0.5;exitY=0;exitDx=0;exitDy=0;" edge="1" parent="1" source="xGMi2MPVF7aktjJ1Y1x7-32" target="xGMi2MPVF7aktjJ1Y1x7-6">
          <mxGeometry width="50" height="50" relative="1" as="geometry">
            <mxPoint x="250" y="390" as="sourcePoint" />
            <mxPoint x="300" y="340" as="targetPoint" />
          </mxGeometry>
        </mxCell>
        <mxCell id="xGMi2MPVF7aktjJ1Y1x7-40" value="" style="endArrow=none;html=1;rounded=0;fontSize=12;startSize=8;endSize=8;curved=1;entryX=0.262;entryY=-0.045;entryDx=0;entryDy=0;entryPerimeter=0;exitX=1;exitY=1;exitDx=0;exitDy=0;" edge="1" parent="1" source="xGMi2MPVF7aktjJ1Y1x7-6" target="xGMi2MPVF7aktjJ1Y1x7-33">
          <mxGeometry width="50" height="50" relative="1" as="geometry">
            <mxPoint x="330" y="380" as="sourcePoint" />
            <mxPoint x="380" y="330" as="targetPoint" />
          </mxGeometry>
        </mxCell>
        <mxCell id="xGMi2MPVF7aktjJ1Y1x7-41" value="" style="endArrow=none;html=1;rounded=0;fontSize=12;startSize=8;endSize=8;curved=1;entryX=0;entryY=0.5;entryDx=0;entryDy=0;exitX=1;exitY=0.75;exitDx=0;exitDy=0;" edge="1" parent="1" source="xGMi2MPVF7aktjJ1Y1x7-6" target="xGMi2MPVF7aktjJ1Y1x7-34">
          <mxGeometry width="50" height="50" relative="1" as="geometry">
            <mxPoint x="350" y="330" as="sourcePoint" />
            <mxPoint x="400" y="280" as="targetPoint" />
          </mxGeometry>
        </mxCell>
        <mxCell id="xGMi2MPVF7aktjJ1Y1x7-42" value="" style="endArrow=none;html=1;rounded=0;fontSize=12;startSize=8;endSize=8;curved=1;entryX=0.304;entryY=1.035;entryDx=0;entryDy=0;entryPerimeter=0;exitX=0.871;exitY=-0.052;exitDx=0;exitDy=0;exitPerimeter=0;" edge="1" parent="1" source="xGMi2MPVF7aktjJ1Y1x7-6" target="xGMi2MPVF7aktjJ1Y1x7-35">
          <mxGeometry width="50" height="50" relative="1" as="geometry">
            <mxPoint x="320" y="290" as="sourcePoint" />
            <mxPoint x="370" y="240" as="targetPoint" />
          </mxGeometry>
        </mxCell>
        <mxCell id="xGMi2MPVF7aktjJ1Y1x7-43" value="" style="shape=link;html=1;rounded=0;fontSize=12;startSize=8;endSize=8;curved=1;exitX=1;exitY=0.5;exitDx=0;exitDy=0;entryX=0.362;entryY=-0.025;entryDx=0;entryDy=0;entryPerimeter=0;" edge="1" parent="1" source="xGMi2MPVF7aktjJ1Y1x7-13" target="xGMi2MPVF7aktjJ1Y1x7-1">
          <mxGeometry width="100" relative="1" as="geometry">
            <mxPoint x="710" y="-20" as="sourcePoint" />
            <mxPoint x="810" y="-20" as="targetPoint" />
          </mxGeometry>
        </mxCell>
        <mxCell id="xGMi2MPVF7aktjJ1Y1x7-44" value="" style="endArrow=none;html=1;rounded=0;fontSize=12;startSize=8;endSize=8;curved=1;entryX=0;entryY=0.5;entryDx=0;entryDy=0;exitX=1;exitY=0.5;exitDx=0;exitDy=0;" edge="1" parent="1" source="xGMi2MPVF7aktjJ1Y1x7-2" target="xGMi2MPVF7aktjJ1Y1x7-13">
          <mxGeometry width="50" height="50" relative="1" as="geometry">
            <mxPoint x="520" as="sourcePoint" />
            <mxPoint x="570" y="-50" as="targetPoint" />
          </mxGeometry>
        </mxCell>
        <mxCell id="xGMi2MPVF7aktjJ1Y1x7-45" value="Dname" style="ellipse;whiteSpace=wrap;html=1;fontSize=16;" vertex="1" parent="1">
          <mxGeometry x="782.5" y="10" width="85" height="40" as="geometry" />
        </mxCell>
        <mxCell id="xGMi2MPVF7aktjJ1Y1x7-46" value="Dnumber" style="ellipse;whiteSpace=wrap;html=1;fontSize=16;" vertex="1" parent="1">
          <mxGeometry x="790" y="-100" width="70" height="30" as="geometry" />
        </mxCell>
        <mxCell id="xGMi2MPVF7aktjJ1Y1x7-47" value="Number" style="ellipse;whiteSpace=wrap;html=1;fontSize=16;" vertex="1" parent="1">
          <mxGeometry x="700" y="320" width="70" height="50" as="geometry" />
        </mxCell>
        <mxCell id="xGMi2MPVF7aktjJ1Y1x7-48" value="Name" style="ellipse;whiteSpace=wrap;html=1;fontSize=16;" vertex="1" parent="1">
          <mxGeometry x="790" y="205" width="70" height="30" as="geometry" />
        </mxCell>
        <mxCell id="xGMi2MPVF7aktjJ1Y1x7-49" value="Location" style="ellipse;whiteSpace=wrap;html=1;fontSize=16;" vertex="1" parent="1">
          <mxGeometry x="790" y="320" width="95" height="50" as="geometry" />
        </mxCell>
        <mxCell id="xGMi2MPVF7aktjJ1Y1x7-50" value="" style="endArrow=none;html=1;rounded=0;fontSize=12;startSize=8;endSize=8;curved=1;exitX=0.602;exitY=-0.005;exitDx=0;exitDy=0;exitPerimeter=0;entryX=0.351;entryY=0.98;entryDx=0;entryDy=0;entryPerimeter=0;" edge="1" parent="1" source="xGMi2MPVF7aktjJ1Y1x7-1" target="xGMi2MPVF7aktjJ1Y1x7-46">
          <mxGeometry width="50" height="50" relative="1" as="geometry">
            <mxPoint x="760" y="100" as="sourcePoint" />
            <mxPoint x="820" y="50" as="targetPoint" />
          </mxGeometry>
        </mxCell>
        <mxCell id="xGMi2MPVF7aktjJ1Y1x7-51" value="" style="endArrow=none;html=1;rounded=0;fontSize=12;startSize=8;endSize=8;curved=1;entryX=0.5;entryY=1;entryDx=0;entryDy=0;" edge="1" parent="1" source="xGMi2MPVF7aktjJ1Y1x7-45" target="xGMi2MPVF7aktjJ1Y1x7-1">
          <mxGeometry width="50" height="50" relative="1" as="geometry">
            <mxPoint x="720" y="180" as="sourcePoint" />
            <mxPoint x="770" y="130" as="targetPoint" />
          </mxGeometry>
        </mxCell>
        <mxCell id="xGMi2MPVF7aktjJ1Y1x7-52" value="" style="endArrow=none;html=1;rounded=0;fontSize=12;startSize=8;endSize=8;curved=1;entryX=0;entryY=1;entryDx=0;entryDy=0;exitX=0.75;exitY=0;exitDx=0;exitDy=0;" edge="1" parent="1" source="xGMi2MPVF7aktjJ1Y1x7-4" target="xGMi2MPVF7aktjJ1Y1x7-48">
          <mxGeometry width="50" height="50" relative="1" as="geometry">
            <mxPoint x="730" y="270" as="sourcePoint" />
            <mxPoint x="780" y="220" as="targetPoint" />
          </mxGeometry>
        </mxCell>
        <mxCell id="xGMi2MPVF7aktjJ1Y1x7-53" value="" style="endArrow=none;html=1;rounded=0;fontSize=12;startSize=8;endSize=8;curved=1;entryX=0.75;entryY=1;entryDx=0;entryDy=0;exitX=0.385;exitY=0.028;exitDx=0;exitDy=0;exitPerimeter=0;" edge="1" parent="1" source="xGMi2MPVF7aktjJ1Y1x7-49" target="xGMi2MPVF7aktjJ1Y1x7-4">
          <mxGeometry width="50" height="50" relative="1" as="geometry">
            <mxPoint x="800" y="330" as="sourcePoint" />
            <mxPoint x="850" y="280" as="targetPoint" />
          </mxGeometry>
        </mxCell>
        <mxCell id="xGMi2MPVF7aktjJ1Y1x7-55" value="" style="endArrow=none;html=1;rounded=0;fontSize=12;startSize=8;endSize=8;curved=1;entryX=0.25;entryY=1;entryDx=0;entryDy=0;exitX=0.746;exitY=0.092;exitDx=0;exitDy=0;exitPerimeter=0;" edge="1" parent="1" source="xGMi2MPVF7aktjJ1Y1x7-47" target="xGMi2MPVF7aktjJ1Y1x7-4">
          <mxGeometry width="50" height="50" relative="1" as="geometry">
            <mxPoint x="690" y="340" as="sourcePoint" />
            <mxPoint x="740" y="290" as="targetPoint" />
          </mxGeometry>
        </mxCell>
        <mxCell id="xGMi2MPVF7aktjJ1Y1x7-56" style="edgeStyle=none;curved=1;rounded=0;orthogonalLoop=1;jettySize=auto;html=1;exitX=0.5;exitY=1;exitDx=0;exitDy=0;fontSize=12;startSize=8;endSize=8;" edge="1" parent="1" source="xGMi2MPVF7aktjJ1Y1x7-1" target="xGMi2MPVF7aktjJ1Y1x7-1">
          <mxGeometry relative="1" as="geometry" />
        </mxCell>
        <mxCell id="xGMi2MPVF7aktjJ1Y1x7-57" value="Controls" style="rhombus;whiteSpace=wrap;html=1;fontSize=16;" vertex="1" parent="1">
          <mxGeometry x="740" y="105" width="80" height="50" as="geometry" />
        </mxCell>
        <mxCell id="xGMi2MPVF7aktjJ1Y1x7-58" value="" style="shape=link;html=1;rounded=0;fontSize=12;startSize=8;endSize=8;curved=1;entryX=0.5;entryY=1;entryDx=0;entryDy=0;exitX=0.25;exitY=0;exitDx=0;exitDy=0;" edge="1" parent="1" source="xGMi2MPVF7aktjJ1Y1x7-4" target="xGMi2MPVF7aktjJ1Y1x7-57">
          <mxGeometry width="100" relative="1" as="geometry">
            <mxPoint x="700" y="190" as="sourcePoint" />
            <mxPoint x="800" y="190" as="targetPoint" />
          </mxGeometry>
        </mxCell>
        <mxCell id="xGMi2MPVF7aktjJ1Y1x7-59" value="" style="endArrow=none;html=1;rounded=0;fontSize=12;startSize=8;endSize=8;curved=1;entryX=0.176;entryY=1.045;entryDx=0;entryDy=0;entryPerimeter=0;exitX=0.5;exitY=0.3;exitDx=0;exitDy=0;exitPerimeter=0;" edge="1" parent="1" source="xGMi2MPVF7aktjJ1Y1x7-57" target="xGMi2MPVF7aktjJ1Y1x7-1">
          <mxGeometry width="50" height="50" relative="1" as="geometry">
            <mxPoint x="710" y="110" as="sourcePoint" />
            <mxPoint x="760" y="60" as="targetPoint" />
          </mxGeometry>
        </mxCell>
        <mxCell id="xGMi2MPVF7aktjJ1Y1x7-60" value="" style="shape=link;html=1;rounded=0;fontSize=12;startSize=8;endSize=8;curved=1;exitX=1;exitY=0.75;exitDx=0;exitDy=0;entryX=0;entryY=0.5;entryDx=0;entryDy=0;" edge="1" parent="1" source="xGMi2MPVF7aktjJ1Y1x7-2" target="xGMi2MPVF7aktjJ1Y1x7-15">
          <mxGeometry width="100" relative="1" as="geometry">
            <mxPoint x="480" y="30" as="sourcePoint" />
            <mxPoint x="580" y="30" as="targetPoint" />
          </mxGeometry>
        </mxCell>
        <mxCell id="xGMi2MPVF7aktjJ1Y1x7-61" value="" style="shape=link;html=1;rounded=0;fontSize=12;startSize=8;endSize=8;curved=1;entryX=0;entryY=0.25;entryDx=0;entryDy=0;exitX=0.852;exitY=0.72;exitDx=0;exitDy=0;exitPerimeter=0;" edge="1" parent="1" source="xGMi2MPVF7aktjJ1Y1x7-16" target="xGMi2MPVF7aktjJ1Y1x7-4">
          <mxGeometry width="100" relative="1" as="geometry">
            <mxPoint x="660" y="230" as="sourcePoint" />
            <mxPoint x="760" y="230" as="targetPoint" />
          </mxGeometry>
        </mxCell>
        <mxCell id="xGMi2MPVF7aktjJ1Y1x7-62" value="" style="shape=link;html=1;rounded=0;fontSize=12;startSize=8;endSize=8;curved=1;exitX=0.911;exitY=1.105;exitDx=0;exitDy=0;exitPerimeter=0;entryX=0.102;entryY=0.464;entryDx=0;entryDy=0;entryPerimeter=0;" edge="1" parent="1" source="xGMi2MPVF7aktjJ1Y1x7-2" target="xGMi2MPVF7aktjJ1Y1x7-16">
          <mxGeometry width="100" relative="1" as="geometry">
            <mxPoint x="500" y="130" as="sourcePoint" />
            <mxPoint x="600" y="130" as="targetPoint" />
          </mxGeometry>
        </mxCell>
        <mxCell id="xGMi2MPVF7aktjJ1Y1x7-63" value="" style="endArrow=none;html=1;rounded=0;fontSize=12;startSize=8;endSize=8;curved=1;exitX=1;exitY=0.5;exitDx=0;exitDy=0;entryX=0;entryY=1;entryDx=0;entryDy=0;" edge="1" parent="1" source="xGMi2MPVF7aktjJ1Y1x7-15" target="xGMi2MPVF7aktjJ1Y1x7-1">
          <mxGeometry width="50" height="50" relative="1" as="geometry">
            <mxPoint x="700" y="100" as="sourcePoint" />
            <mxPoint x="750" y="50" as="targetPoint" />
          </mxGeometry>
        </mxCell>
        <mxCell id="xGMi2MPVF7aktjJ1Y1x7-64" value="" style="rhombus;whiteSpace=wrap;html=1;fontSize=16;" vertex="1" parent="1">
          <mxGeometry x="255" y="140" width="80" height="80" as="geometry" />
        </mxCell>
        <mxCell id="xGMi2MPVF7aktjJ1Y1x7-65" value="Has" style="rhombus;whiteSpace=wrap;html=1;fontSize=16;" vertex="1" parent="1">
          <mxGeometry x="265" y="150" width="60" height="60" as="geometry" />
        </mxCell>
        <mxCell id="xGMi2MPVF7aktjJ1Y1x7-66" value="" style="endArrow=none;html=1;rounded=0;fontSize=12;startSize=8;endSize=8;curved=1;entryX=0.6;entryY=1.125;entryDx=0;entryDy=0;entryPerimeter=0;exitX=0.089;exitY=0.37;exitDx=0;exitDy=0;exitPerimeter=0;" edge="1" parent="1" source="xGMi2MPVF7aktjJ1Y1x7-19" target="xGMi2MPVF7aktjJ1Y1x7-2">
          <mxGeometry width="50" height="50" relative="1" as="geometry">
            <mxPoint x="350" y="90" as="sourcePoint" />
            <mxPoint x="400" y="40" as="targetPoint" />
          </mxGeometry>
        </mxCell>
        <mxCell id="xGMi2MPVF7aktjJ1Y1x7-67" value="" style="shape=link;html=1;rounded=0;fontSize=12;startSize=8;endSize=8;curved=1;exitX=0.671;exitY=1.005;exitDx=0;exitDy=0;exitPerimeter=0;entryX=0.911;entryY=0.49;entryDx=0;entryDy=0;entryPerimeter=0;" edge="1" parent="1" source="xGMi2MPVF7aktjJ1Y1x7-2" target="xGMi2MPVF7aktjJ1Y1x7-19">
          <mxGeometry width="100" relative="1" as="geometry">
            <mxPoint x="420" y="140" as="sourcePoint" />
            <mxPoint x="520" y="140" as="targetPoint" />
          </mxGeometry>
        </mxCell>
      </root>
    </mxGraphModel>
  </diagram>
</mxfile>
